<?xml version="1.0" encoding="UTF-8"?>
<svg xmlns="http://www.w3.org/2000/svg" xmlns:xlink="http://www.w3.org/1999/xlink" width="15pt" height="15pt" viewBox="0 0 15 15" version="1.1">
<g id="surface1">
<path style=" stroke:none;fill-rule:nonzero;fill:rgb(2.352941%,16.862745%,19.215686%);fill-opacity:1;" d="M 7.5 3.785156 C 7.527344 3.785156 10.1875 3.785156 11.941406 3.910156 L 12.019531 3.917969 C 12.253906 3.9375 12.507812 3.964844 12.753906 4.21875 C 12.871094 4.335938 13.003906 4.753906 13.050781 5.046875 C 13.125 5.699219 13.164062 6.351562 13.167969 7.007812 L 13.167969 7.972656 C 13.164062 8.628906 13.125 9.28125 13.050781 9.929688 C 13.007812 10.222656 12.871094 10.640625 12.757812 10.75 C 12.507812 11.007812 12.25 11.03125 12.019531 11.054688 L 11.941406 11.0625 C 10.214844 11.179688 7.617188 11.191406 7.5 11.191406 C 7.367188 11.191406 4.21875 11.160156 3.214844 11.074219 C 3.15625 11.066406 3.097656 11.054688 3.03125 11.050781 C 2.761719 11.019531 2.460938 10.980469 2.242188 10.753906 C 2.125 10.636719 1.992188 10.222656 1.945312 9.929688 C 1.871094 9.277344 1.832031 8.625 1.828125 7.972656 L 1.828125 7.015625 C 1.832031 6.359375 1.871094 5.707031 1.945312 5.054688 C 1.992188 4.757812 2.128906 4.34375 2.242188 4.226562 C 2.492188 3.972656 2.75 3.949219 2.980469 3.925781 L 3.054688 3.917969 C 4.8125 3.792969 7.472656 3.792969 7.496094 3.792969 L 7.5 3.792969 M 7.5 3.03125 C 7.5 3.03125 4.792969 3.03125 2.992188 3.160156 C 2.738281 3.1875 2.191406 3.191406 1.703125 3.695312 C 1.316406 4.085938 1.191406 4.960938 1.191406 4.960938 C 1.109375 5.644531 1.0625 6.328125 1.054688 7.015625 L 1.054688 7.980469 C 1.058594 8.667969 1.101562 9.359375 1.183594 10.042969 C 1.183594 10.042969 1.308594 10.917969 1.695312 11.304688 C 2.1875 11.8125 2.828125 11.796875 3.117188 11.851562 C 4.148438 11.945312 7.5 11.976562 7.5 11.976562 C 7.5 11.976562 10.207031 11.976562 12.011719 11.84375 C 12.265625 11.816406 12.8125 11.8125 13.300781 11.304688 C 13.6875 10.921875 13.8125 10.042969 13.8125 10.042969 C 13.894531 9.359375 13.9375 8.671875 13.945312 7.980469 L 13.945312 7.015625 C 13.941406 6.328125 13.898438 5.640625 13.816406 4.953125 C 13.816406 4.953125 13.691406 4.078125 13.304688 3.691406 C 12.8125 3.183594 12.265625 3.179688 12.015625 3.152344 C 10.207031 3.023438 7.5 3.023438 7.5 3.023438 Z M 7.5 3.03125 "/>
<path style=" stroke:none;fill-rule:nonzero;fill:rgb(2.352941%,16.862745%,19.215686%);fill-opacity:1;" d="M 6.34375 5.578125 L 6.34375 9.421875 L 9.625 7.5 Z M 6.34375 5.578125 "/>
</g>
</svg>
